<svg width="1080" height="1080" viewBox="0 0 1080 1080" fill="none" xmlns="http://www.w3.org/2000/svg">
<rect width="1080" height="1080" fill="white"/>
<path d="M23 92V43.7H60.425V55.475H39.125V61.85H57.575V73.925H39.125V92H23ZM61.9297 92V84.8C63.3797 82.3 65.0297 80.05 66.8797 78.05C68.7797 76 70.9297 73.9 73.3297 71.75C75.2797 70.05 76.8547 68.625 78.0547 67.475C79.3047 66.325 80.2047 65.275 80.7547 64.325C81.3547 63.325 81.6547 62.25 81.6547 61.1C81.6547 58.15 79.6297 56.675 75.5797 56.675C73.4297 56.675 71.3047 56.925 69.2047 57.425C67.1547 57.925 65.2297 58.575 63.4297 59.375V45.8C65.5297 44.95 68.0047 44.275 70.8547 43.775C73.7547 43.225 76.7297 42.95 79.7797 42.95C85.9797 42.95 90.5797 44.4 93.5797 47.3C96.6297 50.15 98.1547 53.925 98.1547 58.625C98.1547 60.775 97.9047 62.65 97.4047 64.25C96.9047 65.8 96.1297 67.25 95.0797 68.6C94.0297 69.9 92.6297 71.325 90.8797 72.875C89.6297 73.975 88.3047 75.125 86.9047 76.325C85.5547 77.525 84.5297 78.65 83.8297 79.7H98.5297V92H61.9297ZM118.435 92V43.7H134.56V92H118.435ZM140.554 92V56.45H155.629L156.004 58.85C157.304 58 159.079 57.275 161.329 56.675C163.579 56.025 165.979 55.7 168.529 55.7C172.879 55.7 176.054 56.825 178.054 59.075C180.054 61.275 181.054 64.65 181.054 69.2V92H164.929V71.075C164.929 69.825 164.654 68.95 164.104 68.45C163.554 67.9 162.629 67.625 161.329 67.625C160.529 67.625 159.679 67.825 158.779 68.225C157.929 68.625 157.229 69.1 156.679 69.65V92H140.554ZM202.671 92.75C197.571 92.75 193.896 91.5 191.646 89C189.396 86.45 188.271 83.025 188.271 78.725V68.225H183.846V56.45H188.271V49.325L204.396 45.8V56.45H212.121L211.671 68.225H204.396V77.75C204.396 80.15 205.746 81.35 208.446 81.35C209.946 81.35 211.446 81.1 212.946 80.6V90.95C211.496 91.55 209.946 92 208.296 92.3C206.646 92.6 204.771 92.75 202.671 92.75ZM236.166 92.75C232.016 92.75 228.291 92.075 224.991 90.725C221.741 89.325 219.191 87.25 217.341 84.5C215.491 81.75 214.566 78.375 214.566 74.375C214.566 68.725 216.191 64.2 219.441 60.8C222.741 57.4 227.666 55.7 234.216 55.7C240.166 55.7 244.866 57.2 248.316 60.2C251.766 63.15 253.491 67.3 253.491 72.65V78.8H229.341C230.641 81.55 234.291 82.925 240.291 82.925C242.491 82.925 244.616 82.75 246.666 82.4C248.716 82 250.366 81.55 251.616 81.05V90.2C248.066 91.9 242.916 92.75 236.166 92.75ZM229.341 70.4H239.691V69.425C239.691 68.375 239.316 67.475 238.566 66.725C237.866 65.975 236.591 65.6 234.741 65.6C232.741 65.6 231.341 66.025 230.541 66.875C229.741 67.725 229.341 68.9 229.341 70.4ZM257.961 92V56.45H273.636L274.011 58.925C275.361 58.125 277.136 57.4 279.336 56.75C281.536 56.1 283.786 55.75 286.086 55.7V67.625C284.836 67.675 283.436 67.8 281.886 68C280.386 68.2 278.936 68.45 277.536 68.75C276.186 69 275.036 69.325 274.086 69.725V92H257.961ZM288.321 76.4V64.1H318.621V76.4H288.321ZM343.246 92.75C338.896 92.75 335.096 92.075 331.846 90.725C328.646 89.375 326.146 87.35 324.346 84.65C322.546 81.9 321.646 78.425 321.646 74.225C321.646 70.025 322.546 66.55 324.346 63.8C326.146 61.05 328.671 59.025 331.921 57.725C335.171 56.375 338.921 55.7 343.171 55.7C345.921 55.7 348.396 55.9 350.596 56.3C352.846 56.65 354.971 57.3 356.971 58.25V69.5C353.921 68.05 350.521 67.325 346.771 67.325C343.871 67.325 341.696 67.85 340.246 68.9C338.796 69.9 338.071 71.675 338.071 74.225C338.071 76.675 338.796 78.45 340.246 79.55C341.696 80.6 343.896 81.125 346.846 81.125C348.646 81.125 350.421 80.9 352.171 80.45C353.921 79.95 355.571 79.3 357.121 78.5V90.275C355.121 91.175 352.971 91.8 350.671 92.15C348.421 92.55 345.946 92.75 343.246 92.75ZM361.599 92V56.45H377.274L377.649 58.925C378.999 58.125 380.774 57.4 382.974 56.75C385.174 56.1 387.424 55.75 389.724 55.7V67.625C388.474 67.675 387.074 67.8 385.524 68C384.024 68.2 382.574 68.45 381.174 68.75C379.824 69 378.674 69.325 377.724 69.725V92H361.599ZM412.019 92.75C404.719 92.75 399.294 91.2 395.744 88.1C392.244 84.95 390.494 80.325 390.494 74.225C390.494 68.125 392.269 63.525 395.819 60.425C399.369 57.275 404.769 55.7 412.019 55.7C419.319 55.7 424.744 57.275 428.294 60.425C431.894 63.525 433.694 68.125 433.694 74.225C433.694 80.325 431.919 84.95 428.369 88.1C424.819 91.2 419.369 92.75 412.019 92.75ZM412.019 81.125C413.819 81.125 415.144 80.6 415.994 79.55C416.844 78.5 417.269 76.725 417.269 74.225C417.269 71.725 416.844 69.95 415.994 68.9C415.144 67.85 413.819 67.325 412.019 67.325C410.269 67.325 408.969 67.85 408.119 68.9C407.319 69.95 406.919 71.725 406.919 74.225C406.919 76.725 407.319 78.5 408.119 79.55C408.969 80.6 410.269 81.125 412.019 81.125ZM452.394 92.75C449.194 92.75 446.169 92.5 443.319 92C440.469 91.55 438.269 91 436.719 90.35V79.55C437.919 80.15 439.269 80.675 440.769 81.125C442.319 81.525 443.869 81.825 445.419 82.025C446.969 82.225 448.294 82.325 449.394 82.325C450.844 82.325 451.994 82.3 452.844 82.25C453.694 82.15 454.119 81.8 454.119 81.2C454.119 80.7 453.719 80.3 452.919 80C452.169 79.7 451.169 79.4 449.919 79.1C448.669 78.75 447.294 78.325 445.794 77.825C442.544 76.625 440.144 75.275 438.594 73.775C437.094 72.225 436.344 70 436.344 67.1C436.344 63.4 437.819 60.575 440.769 58.625C443.769 56.675 448.394 55.7 454.644 55.7C456.194 55.7 457.844 55.8 459.594 56C461.344 56.15 462.994 56.35 464.544 56.6C466.144 56.85 467.419 57.15 468.369 57.5V68.15C466.819 67.45 465.144 66.95 463.344 66.65C461.544 66.3 459.919 66.125 458.469 66.125C457.169 66.125 455.894 66.175 454.644 66.275C453.394 66.375 452.769 66.725 452.769 67.325C452.769 67.975 453.494 68.45 454.944 68.75C456.444 69.05 458.269 69.55 460.419 70.25C463.069 71 465.119 71.85 466.569 72.8C468.069 73.75 469.119 74.9 469.719 76.25C470.319 77.6 470.619 79.25 470.619 81.2C470.619 84.8 469.069 87.625 465.969 89.675C462.919 91.725 458.394 92.75 452.394 92.75ZM487.77 92.75C484.57 92.75 481.545 92.5 478.695 92C475.845 91.55 473.645 91 472.095 90.35V79.55C473.295 80.15 474.645 80.675 476.145 81.125C477.695 81.525 479.245 81.825 480.795 82.025C482.345 82.225 483.67 82.325 484.77 82.325C486.22 82.325 487.37 82.3 488.22 82.25C489.07 82.15 489.495 81.8 489.495 81.2C489.495 80.7 489.095 80.3 488.295 80C487.545 79.7 486.545 79.4 485.295 79.1C484.045 78.75 482.67 78.325 481.17 77.825C477.92 76.625 475.52 75.275 473.97 73.775C472.47 72.225 471.72 70 471.72 67.1C471.72 63.4 473.195 60.575 476.145 58.625C479.145 56.675 483.77 55.7 490.02 55.7C491.57 55.7 493.22 55.8 494.97 56C496.72 56.15 498.37 56.35 499.92 56.6C501.52 56.85 502.795 57.15 503.745 57.5V68.15C502.195 67.45 500.52 66.95 498.72 66.65C496.92 66.3 495.295 66.125 493.845 66.125C492.545 66.125 491.27 66.175 490.02 66.275C488.77 66.375 488.145 66.725 488.145 67.325C488.145 67.975 488.87 68.45 490.32 68.75C491.82 69.05 493.645 69.55 495.795 70.25C498.445 71 500.495 71.85 501.945 72.8C503.445 73.75 504.495 74.9 505.095 76.25C505.695 77.6 505.995 79.25 505.995 81.2C505.995 84.8 504.445 87.625 501.345 89.675C498.295 91.725 493.77 92.75 487.77 92.75ZM525.881 92V43.7H553.481C558.381 43.7 562.156 44.875 564.806 47.225C567.456 49.575 568.781 52.9 568.781 57.2C568.781 59.65 568.331 61.725 567.431 63.425C566.581 65.125 565.431 66.475 563.981 67.475C565.981 68.325 567.556 69.5 568.706 71C569.856 72.45 570.431 74.625 570.431 77.525C570.431 82.075 568.981 85.625 566.081 88.175C563.181 90.725 559.131 92 553.931 92H525.881ZM541.181 62.6H549.131C552.031 62.6 553.481 61.3 553.481 58.7C553.481 57.45 553.106 56.5 552.356 55.85C551.656 55.15 550.506 54.8 548.906 54.8H541.181V62.6ZM541.181 80.975H549.431C552.481 80.975 554.006 79.575 554.006 76.775C554.006 74.175 552.431 72.875 549.281 72.875H541.181V80.975ZM574.953 92V56.45H590.628L591.003 58.925C592.353 58.125 594.128 57.4 596.328 56.75C598.528 56.1 600.778 55.75 603.078 55.7V67.625C601.828 67.675 600.428 67.8 598.878 68C597.378 68.2 595.928 68.45 594.528 68.75C593.178 69 592.028 69.325 591.078 69.725V92H574.953ZM625.449 92.75C621.299 92.75 617.574 92.075 614.274 90.725C611.024 89.325 608.474 87.25 606.624 84.5C604.774 81.75 603.849 78.375 603.849 74.375C603.849 68.725 605.474 64.2 608.724 60.8C612.024 57.4 616.949 55.7 623.499 55.7C629.449 55.7 634.149 57.2 637.599 60.2C641.049 63.15 642.774 67.3 642.774 72.65V78.8H618.624C619.924 81.55 623.574 82.925 629.574 82.925C631.774 82.925 633.899 82.75 635.949 82.4C637.999 82 639.649 81.55 640.899 81.05V90.2C637.349 91.9 632.199 92.75 625.449 92.75ZM618.624 70.4H628.974V69.425C628.974 68.375 628.599 67.475 627.849 66.725C627.149 65.975 625.874 65.6 624.024 65.6C622.024 65.6 620.624 66.025 619.824 66.875C619.024 67.725 618.624 68.9 618.624 70.4ZM667.343 92.75C663.193 92.75 659.468 92.075 656.168 90.725C652.918 89.325 650.368 87.25 648.518 84.5C646.668 81.75 645.743 78.375 645.743 74.375C645.743 68.725 647.368 64.2 650.618 60.8C653.918 57.4 658.843 55.7 665.393 55.7C671.343 55.7 676.043 57.2 679.493 60.2C682.943 63.15 684.668 67.3 684.668 72.65V78.8H660.518C661.818 81.55 665.468 82.925 671.468 82.925C673.668 82.925 675.793 82.75 677.843 82.4C679.893 82 681.543 81.55 682.793 81.05V90.2C679.243 91.9 674.093 92.75 667.343 92.75ZM660.518 70.4H670.868V69.425C670.868 68.375 670.493 67.475 669.743 66.725C669.043 65.975 667.768 65.6 665.918 65.6C663.918 65.6 662.518 66.025 661.718 66.875C660.918 67.725 660.518 68.9 660.518 70.4ZM704.288 92.75C700.938 92.75 698.013 92.175 695.513 91.025C693.013 89.875 691.063 88.025 689.663 85.475C688.313 82.875 687.638 79.475 687.638 75.275C687.638 70.875 688.438 67.25 690.038 64.4C691.638 61.5 693.763 59.325 696.413 57.875C699.113 56.425 702.063 55.7 705.263 55.7C706.713 55.7 708.138 55.85 709.538 56.15C710.988 56.45 712.238 56.875 713.288 57.425V41.45H729.413V92H715.463L714.713 89.45C713.313 90.5 711.788 91.325 710.138 91.925C708.488 92.475 706.538 92.75 704.288 92.75ZM708.938 81.2C709.838 81.2 710.638 81.05 711.338 80.75C712.038 80.45 712.688 80.05 713.288 79.55V68.825C712.138 67.825 710.688 67.325 708.938 67.325C707.188 67.325 705.938 68.025 705.188 69.425C704.438 70.775 704.063 72.75 704.063 75.35C704.063 77.95 704.463 79.575 705.263 80.225C706.113 80.875 707.338 81.2 708.938 81.2ZM738.052 52.625V41.3H755.377V52.625H738.052ZM739.252 92V68.15H734.227L735.577 56.45H755.377V92H739.252ZM761.354 92V56.45H776.429L776.804 58.85C778.104 58 779.879 57.275 782.129 56.675C784.379 56.025 786.779 55.7 789.329 55.7C793.679 55.7 796.854 56.825 798.854 59.075C800.854 61.275 801.854 64.65 801.854 69.2V92H785.729V71.075C785.729 69.825 785.454 68.95 784.904 68.45C784.354 67.9 783.429 67.625 782.129 67.625C781.329 67.625 780.479 67.825 779.579 68.225C778.729 68.625 778.029 69.1 777.479 69.65V92H761.354ZM823.622 105.2C821.872 105.2 819.922 105.125 817.772 104.975C815.672 104.875 813.672 104.675 811.772 104.375C809.872 104.125 808.322 103.8 807.122 103.4V93.725C808.472 94.175 810.047 94.525 811.847 94.775C813.697 95.075 815.572 95.3 817.472 95.45C819.372 95.6 821.097 95.675 822.647 95.675C824.947 95.675 826.822 95.55 828.272 95.3C829.772 95.1 830.522 94.7 830.522 94.1C830.522 93.6 830.247 93.275 829.697 93.125C829.147 93.025 828.297 92.975 827.147 92.975H818.222C814.322 92.975 811.347 92.425 809.297 91.325C807.247 90.175 806.222 88.4 806.222 86C806.222 82.6 808.122 80.275 811.922 79.025C809.872 77.975 808.372 76.675 807.422 75.125C806.522 73.575 806.072 71.575 806.072 69.125C806.072 64.525 807.697 61.15 810.947 59C814.247 56.8 818.897 55.7 824.897 55.7C826.197 55.7 827.672 55.8 829.322 56C830.972 56.15 832.147 56.3 832.847 56.45H847.097L846.797 66.125H842.447C843.047 67.075 843.347 68.15 843.347 69.35C843.347 73 842.322 75.875 840.272 77.975C838.272 80.075 834.972 81.125 830.372 81.125C829.772 81.125 829.097 81.1 828.347 81.05C827.597 81 826.922 80.95 826.322 80.9C825.422 80.95 824.622 81.1 823.922 81.35C823.272 81.6 822.947 82.025 822.947 82.625C822.947 83.375 823.697 83.75 825.197 83.75H832.397C836.097 83.75 839.022 84.575 841.172 86.225C843.372 87.875 844.472 90.4 844.472 93.8C844.472 97.3 842.797 100.075 839.447 102.125C836.147 104.175 830.872 105.2 823.622 105.2ZM825.047 72.35C826.847 72.35 828.072 72.05 828.722 71.45C829.422 70.85 829.772 69.85 829.772 68.45C829.772 67 829.422 65.975 828.722 65.375C828.022 64.725 826.797 64.4 825.047 64.4C823.347 64.4 822.122 64.725 821.372 65.375C820.622 65.975 820.247 67 820.247 68.45C820.247 69.8 820.597 70.8 821.297 71.45C822.047 72.05 823.297 72.35 825.047 72.35ZM892.784 92.75C883.634 92.75 876.684 90.625 871.934 86.375C867.234 82.125 864.884 76 864.884 68C864.884 59.8 867.209 53.575 871.859 49.325C876.509 45.075 883.434 42.95 892.634 42.95C895.734 42.95 898.459 43.175 900.809 43.625C903.159 44.075 905.434 44.725 907.634 45.575V59.6C905.334 58.6 903.059 57.85 900.809 57.35C898.609 56.85 896.259 56.6 893.759 56.6C889.709 56.6 886.609 57.475 884.459 59.225C882.359 60.925 881.309 63.85 881.309 68C881.309 72.05 882.409 74.925 884.609 76.625C886.859 78.275 889.959 79.1 893.909 79.1C896.359 79.1 898.709 78.875 900.959 78.425C903.209 77.925 905.484 77.175 907.784 76.175V90.275C905.584 91.075 903.284 91.675 900.884 92.075C898.534 92.525 895.834 92.75 892.784 92.75ZM912.307 92V41.45H928.432V58.25C929.582 57.55 931.032 56.95 932.782 56.45C934.532 55.95 936.407 55.7 938.407 55.7C943.357 55.7 946.982 56.875 949.282 59.225C951.632 61.525 952.807 65.075 952.807 69.875V92H936.607V71.15C936.607 69.85 936.332 68.95 935.782 68.45C935.282 67.9 934.382 67.625 933.082 67.625C932.282 67.625 931.432 67.825 930.532 68.225C929.682 68.625 928.982 69.1 928.432 69.65V92H912.307ZM968.376 92.75C966.126 92.75 964.051 92.35 962.151 91.55C960.251 90.75 958.726 89.5 957.576 87.8C956.426 86.05 955.851 83.825 955.851 81.125C955.851 77.275 957.101 74.325 959.601 72.275C962.101 70.175 965.926 69.125 971.076 69.125H979.701V68.6C979.701 67.6 979.126 66.85 977.976 66.35C976.876 65.8 975.076 65.525 972.576 65.525C970.676 65.525 968.626 65.7 966.426 66.05C964.276 66.35 962.226 66.8 960.276 67.4V58.325C962.176 57.525 964.551 56.9 967.401 56.45C970.251 55.95 973.051 55.7 975.801 55.7C981.601 55.7 986.251 56.9 989.751 59.3C993.251 61.65 995.001 65.375 995.001 70.475V92H980.901L980.226 89.3C978.976 90.35 977.376 91.2 975.426 91.85C973.526 92.45 971.176 92.75 968.376 92.75ZM974.226 83.675C975.476 83.675 976.526 83.475 977.376 83.075C978.276 82.625 979.051 82.075 979.701 81.425V77.6H974.601C971.951 77.6 970.626 78.625 970.626 80.675C970.626 82.675 971.826 83.675 974.226 83.675ZM1000.78 92V56.45H1016.46L1016.83 58.925C1018.18 58.125 1019.96 57.4 1022.16 56.75C1024.36 56.1 1026.61 55.75 1028.91 55.7V67.625C1027.66 67.675 1026.26 67.8 1024.71 68C1023.21 68.2 1021.76 68.45 1020.36 68.75C1019.01 69 1017.86 69.325 1016.91 69.725V92H1000.78ZM1048.62 92.75C1043.52 92.75 1039.84 91.5 1037.59 89C1035.34 86.45 1034.22 83.025 1034.22 78.725V68.225H1029.79V56.45H1034.22V49.325L1050.34 45.8V56.45H1058.07L1057.62 68.225H1050.34V77.75C1050.34 80.15 1051.69 81.35 1054.39 81.35C1055.89 81.35 1057.39 81.1 1058.89 80.6V90.95C1057.44 91.55 1055.89 92 1054.24 92.3C1052.59 92.6 1050.72 92.75 1048.62 92.75Z" fill="black"/>
<path d="M151.75 260L165.475 241.925L152.275 224.45H168.325L173.875 231.95L179.5 224.45H195.475L182.35 241.925L196.075 260H179.875L173.875 252.05L167.875 260H151.75Z" fill="black"/>
<path d="M184.75 654L198.475 635.925L185.275 618.45H201.325L206.875 625.95L212.5 618.45H228.475L215.35 635.925L229.075 654H212.875L206.875 646.05L200.875 654H184.75Z" fill="black"/>
<path d="M30.5 413L49.025 364.7H65.9L84.5 413H67.7L63.95 403.4H50.975L47.3 413H30.5ZM52.925 392.15H62L57.425 380.45L52.925 392.15ZM84.8457 413L103.371 364.7H120.246L138.846 413H122.046L118.296 403.4H105.321L101.646 413H84.8457ZM107.271 392.15H116.346L111.771 380.45L107.271 392.15Z" fill="black"/>
<path d="M55.5 810L74.025 761.7H90.9L109.5 810H92.7L88.95 800.4H75.975L72.3 810H55.5ZM77.925 789.15H87L82.425 777.45L77.925 789.15ZM113.982 810V761.7H141.582C146.482 761.7 150.257 762.875 152.907 765.225C155.557 767.575 156.882 770.9 156.882 775.2C156.882 777.65 156.432 779.725 155.532 781.425C154.682 783.125 153.532 784.475 152.082 785.475C154.082 786.325 155.657 787.5 156.807 789C157.957 790.45 158.532 792.625 158.532 795.525C158.532 800.075 157.082 803.625 154.182 806.175C151.282 808.725 147.232 810 142.032 810H113.982ZM129.282 780.6H137.232C140.132 780.6 141.582 779.3 141.582 776.7C141.582 775.45 141.207 774.5 140.457 773.85C139.757 773.15 138.607 772.8 137.007 772.8H129.282V780.6ZM129.282 798.975H137.532C140.582 798.975 142.107 797.575 142.107 794.775C142.107 792.175 140.532 790.875 137.382 790.875H129.282V798.975Z" fill="black"/>
<mask id="path-6-outside-1_1_2" maskUnits="userSpaceOnUse" x="503" y="1012" width="72" height="36" fill="black">
<rect fill="white" x="503" y="1012" width="72" height="36"/>
<path d="M505 1046L517.35 1013.8H528.6L541 1046H529.8L527.3 1039.6H518.65L516.2 1046H505ZM519.95 1032.1H526L522.95 1024.3L519.95 1032.1Z"/>
<path d="M543.988 1046V1013.8H562.388C565.655 1013.8 568.172 1014.58 569.938 1016.15C571.705 1017.72 572.588 1019.93 572.588 1022.8C572.588 1024.43 572.288 1025.82 571.688 1026.95C571.122 1028.08 570.355 1028.98 569.388 1029.65C570.722 1030.22 571.772 1031 572.538 1032C573.305 1032.97 573.688 1034.42 573.688 1036.35C573.688 1039.38 572.722 1041.75 570.788 1043.45C568.855 1045.15 566.155 1046 562.688 1046H543.988ZM554.188 1026.4H559.488C561.422 1026.4 562.388 1025.53 562.388 1023.8C562.388 1022.97 562.138 1022.33 561.638 1021.9C561.172 1021.43 560.405 1021.2 559.338 1021.2H554.188V1026.4ZM554.188 1038.65H559.688C561.722 1038.65 562.738 1037.72 562.738 1035.85C562.738 1034.12 561.688 1033.25 559.588 1033.25H554.188V1038.65Z"/>
</mask>
<path d="M505 1046L517.35 1013.8H528.6L541 1046H529.8L527.3 1039.6H518.65L516.2 1046H505ZM519.95 1032.1H526L522.95 1024.3L519.95 1032.1Z" fill="#ED0B0B"/>
<path d="M543.988 1046V1013.8H562.388C565.655 1013.8 568.172 1014.58 569.938 1016.15C571.705 1017.72 572.588 1019.93 572.588 1022.8C572.588 1024.43 572.288 1025.82 571.688 1026.95C571.122 1028.08 570.355 1028.98 569.388 1029.65C570.722 1030.22 571.772 1031 572.538 1032C573.305 1032.97 573.688 1034.42 573.688 1036.35C573.688 1039.38 572.722 1041.75 570.788 1043.45C568.855 1045.15 566.155 1046 562.688 1046H543.988ZM554.188 1026.4H559.488C561.422 1026.4 562.388 1025.53 562.388 1023.8C562.388 1022.97 562.138 1022.33 561.638 1021.9C561.172 1021.43 560.405 1021.2 559.338 1021.2H554.188V1026.4ZM554.188 1038.65H559.688C561.722 1038.65 562.738 1037.72 562.738 1035.85C562.738 1034.12 561.688 1033.25 559.588 1033.25H554.188V1038.65Z" fill="#0B2FED"/>
<path d="M505 1046L503.833 1045.55L503.182 1047.25H505V1046ZM517.35 1013.8V1012.55H516.491L516.183 1013.35L517.35 1013.8ZM528.6 1013.8L529.766 1013.35L529.458 1012.55H528.6V1013.8ZM541 1046V1047.25H542.821L542.166 1045.55L541 1046ZM529.8 1046L528.636 1046.45L528.946 1047.25H529.8V1046ZM527.3 1039.6L528.464 1039.15L528.154 1038.35H527.3V1039.6ZM518.65 1039.6V1038.35H517.79L517.483 1039.15L518.65 1039.6ZM516.2 1046V1047.25H517.06L517.367 1046.45L516.2 1046ZM519.95 1032.1L518.783 1031.65L518.13 1033.35H519.95V1032.1ZM526 1032.1V1033.35H527.831L527.164 1031.64L526 1032.1ZM522.95 1024.3L524.114 1023.84L522.94 1020.84L521.783 1023.85L522.95 1024.3ZM506.167 1046.45L518.517 1014.25L516.183 1013.35L503.833 1045.55L506.167 1046.45ZM517.35 1015.05H528.6V1012.55H517.35V1015.05ZM527.434 1014.25L539.834 1046.45L542.166 1045.55L529.766 1013.35L527.434 1014.25ZM541 1044.75H529.8V1047.25H541V1044.75ZM530.964 1045.55L528.464 1039.15L526.136 1040.05L528.636 1046.45L530.964 1045.55ZM527.3 1038.35H518.65V1040.85H527.3V1038.35ZM517.483 1039.15L515.033 1045.55L517.367 1046.45L519.817 1040.05L517.483 1039.15ZM516.2 1044.75H505V1047.25H516.2V1044.75ZM519.95 1033.35H526V1030.85H519.95V1033.35ZM527.164 1031.64L524.114 1023.84L521.786 1024.76L524.836 1032.56L527.164 1031.64ZM521.783 1023.85L518.783 1031.65L521.117 1032.55L524.117 1024.75L521.783 1023.85ZM543.988 1046H542.738V1047.25H543.988V1046ZM543.988 1013.8V1012.55H542.738V1013.8H543.988ZM569.938 1016.15L569.109 1017.09V1017.09L569.938 1016.15ZM571.688 1026.95L570.584 1026.37L570.577 1026.38L570.57 1026.39L571.688 1026.95ZM569.388 1029.65L568.679 1028.62L566.808 1029.91L568.899 1030.8L569.388 1029.65ZM572.538 1032L571.546 1032.76L571.553 1032.77L571.559 1032.78L572.538 1032ZM570.788 1043.45L571.614 1044.39L570.788 1043.45ZM554.188 1026.4H552.938V1027.65H554.188V1026.4ZM561.638 1021.9L560.754 1022.78L560.786 1022.82L560.82 1022.84L561.638 1021.9ZM554.188 1021.2V1019.95H552.938V1021.2H554.188ZM554.188 1038.65H552.938V1039.9H554.188V1038.65ZM554.188 1033.25V1032H552.938V1033.25H554.188ZM545.238 1046V1013.8H542.738V1046H545.238ZM543.988 1015.05H562.388V1012.55H543.988V1015.05ZM562.388 1015.05C565.467 1015.05 567.646 1015.79 569.109 1017.09L570.768 1015.21C568.698 1013.38 565.843 1012.55 562.388 1012.55V1015.05ZM569.109 1017.09C570.552 1018.36 571.338 1020.21 571.338 1022.8H573.838C573.838 1019.66 572.858 1017.07 570.768 1015.21L569.109 1017.09ZM571.338 1022.8C571.338 1024.28 571.066 1025.45 570.584 1026.37L572.793 1027.53C573.511 1026.18 573.838 1024.58 573.838 1022.8H571.338ZM570.57 1026.39C570.09 1027.35 569.458 1028.08 568.679 1028.62L570.098 1030.68C571.252 1029.88 572.153 1028.82 572.806 1027.51L570.57 1026.39ZM568.899 1030.8C570.064 1031.3 570.929 1031.96 571.546 1032.76L573.53 1031.24C572.614 1030.04 571.379 1029.14 569.877 1028.5L568.899 1030.8ZM571.559 1032.78C572.075 1033.43 572.438 1034.55 572.438 1036.35H574.938C574.938 1034.28 574.534 1032.51 573.518 1031.22L571.559 1032.78ZM572.438 1036.35C572.438 1039.09 571.578 1041.09 569.963 1042.51L571.614 1044.39C573.866 1042.41 574.938 1039.67 574.938 1036.35H572.438ZM569.963 1042.51C568.327 1043.95 565.957 1044.75 562.688 1044.75V1047.25C566.352 1047.25 569.383 1046.35 571.614 1044.39L569.963 1042.51ZM562.688 1044.75H543.988V1047.25H562.688V1044.75ZM554.188 1027.65H559.488V1025.15H554.188V1027.65ZM559.488 1027.65C560.616 1027.65 561.695 1027.4 562.498 1026.68C563.326 1025.94 563.638 1024.9 563.638 1023.8H561.138C561.138 1024.44 560.967 1024.7 560.829 1024.82C560.665 1024.97 560.294 1025.15 559.488 1025.15V1027.65ZM563.638 1023.8C563.638 1022.71 563.299 1021.69 562.457 1020.96L560.82 1022.84C560.977 1022.98 561.138 1023.23 561.138 1023.8H563.638ZM562.522 1021.02C561.712 1020.21 560.541 1019.95 559.338 1019.95V1022.45C560.269 1022.45 560.631 1022.66 560.754 1022.78L562.522 1021.02ZM559.338 1019.95H554.188V1022.45H559.338V1019.95ZM552.938 1021.2V1026.4H555.438V1021.2H552.938ZM554.188 1039.9H559.688V1037.4H554.188V1039.9ZM559.688 1039.9C560.872 1039.9 561.994 1039.63 562.821 1038.87C563.669 1038.09 563.988 1037 563.988 1035.85H561.488C561.488 1036.56 561.299 1036.87 561.13 1037.03C560.941 1037.2 560.538 1037.4 559.688 1037.4V1039.9ZM563.988 1035.85C563.988 1034.72 563.635 1033.67 562.746 1032.94C561.904 1032.24 560.779 1032 559.588 1032V1034.5C560.498 1034.5 560.947 1034.69 561.155 1034.86C561.317 1035 561.488 1035.25 561.488 1035.85H563.988ZM559.588 1032H554.188V1034.5H559.588V1032ZM552.938 1033.25V1038.65H555.438V1033.25H552.938Z" fill="black" mask="url(#path-6-outside-1_1_2)"/>
<mask id="path-8-outside-2_1_2" maskUnits="userSpaceOnUse" x="402" y="1012" width="66" height="36" fill="black">
<rect fill="white" x="402" y="1012" width="66" height="36"/>
<path d="M404 1046V1013.8H422.4C425.667 1013.8 428.183 1014.58 429.95 1016.15C431.717 1017.72 432.6 1019.93 432.6 1022.8C432.6 1024.43 432.3 1025.82 431.7 1026.95C431.133 1028.08 430.367 1028.98 429.4 1029.65C430.733 1030.22 431.783 1031 432.55 1032C433.317 1032.97 433.7 1034.42 433.7 1036.35C433.7 1039.38 432.733 1041.75 430.8 1043.45C428.867 1045.15 426.167 1046 422.7 1046H404ZM414.2 1026.4H419.5C421.433 1026.4 422.4 1025.53 422.4 1023.8C422.4 1022.97 422.15 1022.33 421.65 1021.9C421.183 1021.43 420.417 1021.2 419.35 1021.2H414.2V1026.4ZM414.2 1038.65H419.7C421.733 1038.65 422.75 1037.72 422.75 1035.85C422.75 1034.12 421.7 1033.25 419.6 1033.25H414.2V1038.65ZM436.715 1046V1013.8H455.115C458.382 1013.8 460.898 1014.58 462.665 1016.15C464.432 1017.72 465.315 1019.93 465.315 1022.8C465.315 1024.43 465.015 1025.82 464.415 1026.95C463.848 1028.08 463.082 1028.98 462.115 1029.65C463.448 1030.22 464.498 1031 465.265 1032C466.032 1032.97 466.415 1034.42 466.415 1036.35C466.415 1039.38 465.448 1041.75 463.515 1043.45C461.582 1045.15 458.882 1046 455.415 1046H436.715ZM446.915 1026.4H452.215C454.148 1026.4 455.115 1025.53 455.115 1023.8C455.115 1022.97 454.865 1022.33 454.365 1021.9C453.898 1021.43 453.132 1021.2 452.065 1021.2H446.915V1026.4ZM446.915 1038.65H452.415C454.448 1038.65 455.465 1037.72 455.465 1035.85C455.465 1034.12 454.415 1033.25 452.315 1033.25H446.915V1038.65Z"/>
</mask>
<path d="M404 1046V1013.8H422.4C425.667 1013.8 428.183 1014.58 429.95 1016.15C431.717 1017.72 432.6 1019.93 432.6 1022.8C432.6 1024.43 432.3 1025.82 431.7 1026.95C431.133 1028.08 430.367 1028.98 429.4 1029.65C430.733 1030.22 431.783 1031 432.55 1032C433.317 1032.97 433.7 1034.42 433.7 1036.35C433.7 1039.38 432.733 1041.75 430.8 1043.45C428.867 1045.15 426.167 1046 422.7 1046H404ZM414.2 1026.4H419.5C421.433 1026.4 422.4 1025.53 422.4 1023.8C422.4 1022.97 422.15 1022.33 421.65 1021.9C421.183 1021.43 420.417 1021.2 419.35 1021.2H414.2V1026.4ZM414.2 1038.65H419.7C421.733 1038.65 422.75 1037.72 422.75 1035.85C422.75 1034.12 421.7 1033.25 419.6 1033.25H414.2V1038.65ZM436.715 1046V1013.8H455.115C458.382 1013.8 460.898 1014.58 462.665 1016.15C464.432 1017.72 465.315 1019.93 465.315 1022.8C465.315 1024.43 465.015 1025.82 464.415 1026.95C463.848 1028.08 463.082 1028.98 462.115 1029.65C463.448 1030.22 464.498 1031 465.265 1032C466.032 1032.97 466.415 1034.42 466.415 1036.35C466.415 1039.38 465.448 1041.75 463.515 1043.45C461.582 1045.15 458.882 1046 455.415 1046H436.715ZM446.915 1026.4H452.215C454.148 1026.4 455.115 1025.53 455.115 1023.8C455.115 1022.97 454.865 1022.33 454.365 1021.9C453.898 1021.43 453.132 1021.2 452.065 1021.2H446.915V1026.4ZM446.915 1038.65H452.415C454.448 1038.65 455.465 1037.72 455.465 1035.85C455.465 1034.12 454.415 1033.25 452.315 1033.25H446.915V1038.65Z" fill="#0B2FED"/>
<path d="M404 1046H402.75V1047.25H404V1046ZM404 1013.8V1012.55H402.75V1013.8H404ZM429.95 1016.15L429.121 1017.09V1017.09L429.95 1016.15ZM431.7 1026.95L430.595 1026.37L430.588 1026.38L430.582 1026.39L431.7 1026.95ZM429.4 1029.65L428.69 1028.62L426.819 1029.91L428.911 1030.8L429.4 1029.65ZM432.55 1032L431.558 1032.76L431.564 1032.77L431.571 1032.78L432.55 1032ZM430.8 1043.45L431.625 1044.39L430.8 1043.45ZM414.2 1026.4H412.95V1027.65H414.2V1026.4ZM421.65 1021.9L420.766 1022.78L420.798 1022.82L420.831 1022.84L421.65 1021.9ZM414.2 1021.2V1019.95H412.95V1021.2H414.2ZM414.2 1038.65H412.95V1039.9H414.2V1038.65ZM414.2 1033.25V1032H412.95V1033.25H414.2ZM405.25 1046V1013.8H402.75V1046H405.25ZM404 1015.05H422.4V1012.55H404V1015.05ZM422.4 1015.05C425.478 1015.05 427.657 1015.79 429.121 1017.09L430.779 1015.21C428.709 1013.38 425.855 1012.55 422.4 1012.55V1015.05ZM429.121 1017.09C430.563 1018.36 431.35 1020.21 431.35 1022.8H433.85C433.85 1019.66 432.87 1017.07 430.779 1015.21L429.121 1017.09ZM431.35 1022.8C431.35 1024.28 431.077 1025.45 430.595 1026.37L432.805 1027.53C433.523 1026.18 433.85 1024.58 433.85 1022.8H431.35ZM430.582 1026.39C430.102 1027.35 429.47 1028.08 428.69 1028.62L430.11 1030.68C431.264 1029.88 432.165 1028.82 432.818 1027.51L430.582 1026.39ZM428.911 1030.8C430.076 1031.3 430.941 1031.96 431.558 1032.76L433.542 1031.24C432.626 1030.04 431.391 1029.14 429.889 1028.5L428.911 1030.8ZM431.571 1032.78C432.087 1033.43 432.45 1034.55 432.45 1036.35H434.95C434.95 1034.28 434.546 1032.51 433.529 1031.22L431.571 1032.78ZM432.45 1036.35C432.45 1039.09 431.589 1041.09 429.975 1042.51L431.625 1044.39C433.877 1042.41 434.95 1039.67 434.95 1036.35H432.45ZM429.975 1042.51C428.338 1043.95 425.969 1044.75 422.7 1044.75V1047.25C426.364 1047.25 429.395 1046.35 431.625 1044.39L429.975 1042.51ZM422.7 1044.75H404V1047.25H422.7V1044.75ZM414.2 1027.65H419.5V1025.15H414.2V1027.65ZM419.5 1027.65C420.628 1027.65 421.707 1027.4 422.509 1026.68C423.338 1025.94 423.65 1024.9 423.65 1023.8H421.15C421.15 1024.44 420.979 1024.7 420.841 1024.82C420.676 1024.97 420.306 1025.15 419.5 1025.15V1027.65ZM423.65 1023.8C423.65 1022.71 423.311 1021.69 422.469 1020.96L420.831 1022.84C420.989 1022.98 421.15 1023.23 421.15 1023.8H423.65ZM422.534 1021.02C421.723 1020.21 420.552 1019.95 419.35 1019.95V1022.45C420.281 1022.45 420.643 1022.66 420.766 1022.78L422.534 1021.02ZM419.35 1019.95H414.2V1022.45H419.35V1019.95ZM412.95 1021.2V1026.4H415.45V1021.2H412.95ZM414.2 1039.9H419.7V1037.4H414.2V1039.9ZM419.7 1039.9C420.884 1039.9 422.005 1039.63 422.833 1038.87C423.681 1038.09 424 1037 424 1035.85H421.5C421.5 1036.56 421.311 1036.87 421.142 1037.03C420.953 1037.2 420.549 1037.4 419.7 1037.4V1039.9ZM424 1035.85C424 1034.72 423.646 1033.67 422.758 1032.94C421.916 1032.24 420.791 1032 419.6 1032V1034.5C420.509 1034.5 420.959 1034.69 421.167 1034.86C421.329 1035 421.5 1035.25 421.5 1035.85H424ZM419.6 1032H414.2V1034.5H419.6V1032ZM412.95 1033.25V1038.65H415.45V1033.25H412.95ZM436.715 1046H435.465V1047.25H436.715V1046ZM436.715 1013.8V1012.55H435.465V1013.8H436.715ZM462.665 1016.15L461.835 1017.09L461.835 1017.09L462.665 1016.15ZM464.415 1026.95L463.31 1026.37L463.303 1026.38L463.297 1026.39L464.415 1026.95ZM462.115 1029.65L461.405 1028.62L459.534 1029.91L461.626 1030.8L462.115 1029.65ZM465.265 1032L464.273 1032.76L464.279 1032.77L464.285 1032.78L465.265 1032ZM463.515 1043.45L464.34 1044.39H464.34L463.515 1043.45ZM446.915 1026.4H445.665V1027.65H446.915V1026.4ZM454.365 1021.9L453.481 1022.78L453.512 1022.82L453.546 1022.84L454.365 1021.9ZM446.915 1021.2V1019.95H445.665V1021.2H446.915ZM446.915 1038.65H445.665V1039.9H446.915V1038.65ZM446.915 1033.25V1032H445.665V1033.25H446.915ZM437.965 1046V1013.8H435.465V1046H437.965ZM436.715 1015.05H455.115V1012.55H436.715V1015.05ZM455.115 1015.05C458.193 1015.05 460.372 1015.79 461.835 1017.09L463.494 1015.21C461.424 1013.38 458.57 1012.55 455.115 1012.55V1015.05ZM461.835 1017.09C463.278 1018.36 464.065 1020.21 464.065 1022.8H466.565C466.565 1019.66 465.585 1017.07 463.494 1015.21L461.835 1017.09ZM464.065 1022.8C464.065 1024.28 463.792 1025.45 463.31 1026.37L465.52 1027.53C466.238 1026.18 466.565 1024.58 466.565 1022.8H464.065ZM463.297 1026.39C462.817 1027.35 462.185 1028.08 461.405 1028.62L462.825 1030.68C463.978 1029.88 464.88 1028.82 465.533 1027.51L463.297 1026.39ZM461.626 1030.8C462.791 1031.3 463.656 1031.96 464.273 1032.76L466.257 1031.24C465.34 1030.04 464.106 1029.14 462.604 1028.5L461.626 1030.8ZM464.285 1032.78C464.802 1033.43 465.165 1034.55 465.165 1036.35H467.665C467.665 1034.28 467.261 1032.51 466.244 1031.22L464.285 1032.78ZM465.165 1036.35C465.165 1039.09 464.304 1041.09 462.689 1042.51L464.34 1044.39C466.592 1042.41 467.665 1039.67 467.665 1036.35H465.165ZM462.689 1042.51C461.053 1043.95 458.684 1044.75 455.415 1044.75V1047.25C459.079 1047.25 462.11 1046.35 464.34 1044.39L462.689 1042.51ZM455.415 1044.75H436.715V1047.25H455.415V1044.75ZM446.915 1027.65H452.215V1025.15H446.915V1027.65ZM452.215 1027.65C453.343 1027.65 454.422 1027.4 455.224 1026.68C456.053 1025.94 456.365 1024.9 456.365 1023.8H453.865C453.865 1024.44 453.694 1024.7 453.555 1024.82C453.391 1024.97 453.02 1025.15 452.215 1025.15V1027.65ZM456.365 1023.8C456.365 1022.71 456.026 1021.69 455.184 1020.96L453.546 1022.84C453.704 1022.98 453.865 1023.23 453.865 1023.8H456.365ZM455.249 1021.02C454.438 1020.21 453.267 1019.95 452.065 1019.95V1022.45C452.996 1022.45 453.358 1022.66 453.481 1022.78L455.249 1021.02ZM452.065 1019.95H446.915V1022.45H452.065V1019.95ZM445.665 1021.2V1026.4H448.165V1021.2H445.665ZM446.915 1039.9H452.415V1037.4H446.915V1039.9ZM452.415 1039.9C453.599 1039.9 454.72 1039.63 455.548 1038.87C456.395 1038.09 456.715 1037 456.715 1035.85H454.215C454.215 1036.56 454.026 1036.87 453.857 1037.03C453.668 1037.2 453.264 1037.4 452.415 1037.4V1039.9ZM456.715 1035.85C456.715 1034.72 456.361 1033.67 455.473 1032.94C454.631 1032.24 453.505 1032 452.315 1032V1034.5C453.224 1034.5 453.674 1034.69 453.882 1034.86C454.043 1035 454.215 1035.25 454.215 1035.85H456.715ZM452.315 1032H446.915V1034.5H452.315V1032ZM445.665 1033.25V1038.65H448.165V1033.25H445.665Z" fill="black" mask="url(#path-8-outside-2_1_2)"/>
<mask id="path-10-outside-3_1_2" maskUnits="userSpaceOnUse" x="321" y="1012" width="77" height="36" fill="black">
<rect fill="white" x="321" y="1012" width="77" height="36"/>
<path d="M323 1046L335.35 1013.8H346.6L359 1046H347.8L345.3 1039.6H336.65L334.2 1046H323ZM337.95 1032.1H344L340.95 1024.3L337.95 1032.1ZM359.23 1046L371.58 1013.8H382.83L395.23 1046H384.03L381.53 1039.6H372.88L370.43 1046H359.23ZM374.18 1032.1H380.23L377.18 1024.3L374.18 1032.1Z"/>
</mask>
<path d="M323 1046L335.35 1013.8H346.6L359 1046H347.8L345.3 1039.6H336.65L334.2 1046H323ZM337.95 1032.1H344L340.95 1024.3L337.95 1032.1ZM359.23 1046L371.58 1013.8H382.83L395.23 1046H384.03L381.53 1039.6H372.88L370.43 1046H359.23ZM374.18 1032.1H380.23L377.18 1024.3L374.18 1032.1Z" fill="#ED0B0B"/>
<path d="M323 1046L321.833 1045.55L321.182 1047.25H323V1046ZM335.35 1013.8V1012.55H334.491L334.183 1013.35L335.35 1013.8ZM346.6 1013.8L347.766 1013.35L347.458 1012.55H346.6V1013.8ZM359 1046V1047.25H360.821L360.166 1045.55L359 1046ZM347.8 1046L346.636 1046.45L346.946 1047.25H347.8V1046ZM345.3 1039.6L346.464 1039.15L346.154 1038.35H345.3V1039.6ZM336.65 1039.6V1038.35H335.79L335.483 1039.15L336.65 1039.6ZM334.2 1046V1047.25H335.06L335.367 1046.45L334.2 1046ZM337.95 1032.1L336.783 1031.65L336.13 1033.35H337.95V1032.1ZM344 1032.1V1033.35H345.831L345.164 1031.64L344 1032.1ZM340.95 1024.3L342.114 1023.84L340.94 1020.84L339.783 1023.85L340.95 1024.3ZM324.167 1046.45L336.517 1014.25L334.183 1013.35L321.833 1045.55L324.167 1046.45ZM335.35 1015.05H346.6V1012.55H335.35V1015.05ZM345.434 1014.25L357.834 1046.45L360.166 1045.55L347.766 1013.35L345.434 1014.25ZM359 1044.75H347.8V1047.25H359V1044.75ZM348.964 1045.55L346.464 1039.15L344.136 1040.05L346.636 1046.45L348.964 1045.55ZM345.3 1038.35H336.65V1040.85H345.3V1038.35ZM335.483 1039.15L333.033 1045.55L335.367 1046.45L337.817 1040.05L335.483 1039.15ZM334.2 1044.75H323V1047.25H334.2V1044.75ZM337.95 1033.35H344V1030.85H337.95V1033.35ZM345.164 1031.64L342.114 1023.84L339.786 1024.76L342.836 1032.56L345.164 1031.64ZM339.783 1023.85L336.783 1031.65L339.117 1032.55L342.117 1024.75L339.783 1023.85ZM359.23 1046L358.063 1045.55L357.412 1047.25H359.23V1046ZM371.58 1013.8V1012.55H370.721L370.413 1013.35L371.58 1013.8ZM382.83 1013.8L383.997 1013.35L383.689 1012.55H382.83V1013.8ZM395.23 1046V1047.25H397.051L396.397 1045.55L395.23 1046ZM384.03 1046L382.866 1046.45L383.177 1047.25H384.03V1046ZM381.53 1039.6L382.695 1039.15L382.384 1038.35H381.53V1039.6ZM372.88 1039.6V1038.35H372.021L371.713 1039.15L372.88 1039.6ZM370.43 1046V1047.25H371.29L371.598 1046.45L370.43 1046ZM374.18 1032.1L373.014 1031.65L372.36 1033.35H374.18V1032.1ZM380.23 1032.1V1033.35H382.061L381.395 1031.64L380.23 1032.1ZM377.18 1024.3L378.345 1023.84L377.171 1020.84L376.014 1023.85L377.18 1024.3ZM360.398 1046.45L372.748 1014.25L370.413 1013.35L358.063 1045.55L360.398 1046.45ZM371.58 1015.05H382.83V1012.55H371.58V1015.05ZM381.664 1014.25L394.064 1046.45L396.397 1045.55L383.997 1013.35L381.664 1014.25ZM395.23 1044.75H384.03V1047.25H395.23V1044.75ZM385.195 1045.55L382.695 1039.15L380.366 1040.05L382.866 1046.45L385.195 1045.55ZM381.53 1038.35H372.88V1040.85H381.53V1038.35ZM371.713 1039.15L369.263 1045.55L371.598 1046.45L374.048 1040.05L371.713 1039.15ZM370.43 1044.75H359.23V1047.25H370.43V1044.75ZM374.18 1033.35H380.23V1030.85H374.18V1033.35ZM381.395 1031.64L378.345 1023.84L376.016 1024.76L379.066 1032.56L381.395 1031.64ZM376.014 1023.85L373.014 1031.65L375.347 1032.55L378.347 1024.75L376.014 1023.85Z" fill="black" mask="url(#path-10-outside-3_1_2)"/>
<path d="M258.5 810L277.025 761.7H293.9L312.5 810H295.7L291.95 800.4H278.975L275.3 810H258.5ZM280.925 789.15H290L285.425 777.45L280.925 789.15ZM316.982 810V761.7H344.582C349.482 761.7 353.257 762.875 355.907 765.225C358.557 767.575 359.882 770.9 359.882 775.2C359.882 777.65 359.432 779.725 358.532 781.425C357.682 783.125 356.532 784.475 355.082 785.475C357.082 786.325 358.657 787.5 359.807 789C360.957 790.45 361.532 792.625 361.532 795.525C361.532 800.075 360.082 803.625 357.182 806.175C354.282 808.725 350.232 810 345.032 810H316.982ZM332.282 780.6H340.232C343.132 780.6 344.582 779.3 344.582 776.7C344.582 775.45 344.207 774.5 343.457 773.85C342.757 773.15 341.607 772.8 340.007 772.8H332.282V780.6ZM332.282 798.975H340.532C343.582 798.975 345.107 797.575 345.107 794.775C345.107 792.175 343.532 790.875 340.382 790.875H332.282V798.975Z" fill="black"/>
<path d="M229 413V364.7H256.6C261.5 364.7 265.275 365.875 267.925 368.225C270.575 370.575 271.9 373.9 271.9 378.2C271.9 380.65 271.45 382.725 270.55 384.425C269.7 386.125 268.55 387.475 267.1 388.475C269.1 389.325 270.675 390.5 271.825 392C272.975 393.45 273.55 395.625 273.55 398.525C273.55 403.075 272.1 406.625 269.2 409.175C266.3 411.725 262.25 413 257.05 413H229ZM244.3 383.6H252.25C255.15 383.6 256.6 382.3 256.6 379.7C256.6 378.45 256.225 377.5 255.475 376.85C254.775 376.15 253.625 375.8 252.025 375.8H244.3V383.6ZM244.3 401.975H252.55C255.6 401.975 257.125 400.575 257.125 397.775C257.125 395.175 255.55 393.875 252.4 393.875H244.3V401.975ZM278.072 413V364.7H305.672C310.572 364.7 314.347 365.875 316.997 368.225C319.647 370.575 320.972 373.9 320.972 378.2C320.972 380.65 320.522 382.725 319.622 384.425C318.772 386.125 317.622 387.475 316.172 388.475C318.172 389.325 319.747 390.5 320.897 392C322.047 393.45 322.622 395.625 322.622 398.525C322.622 403.075 321.172 406.625 318.272 409.175C315.372 411.725 311.322 413 306.122 413H278.072ZM293.372 383.6H301.322C304.222 383.6 305.672 382.3 305.672 379.7C305.672 378.45 305.297 377.5 304.547 376.85C303.847 376.15 302.697 375.8 301.097 375.8H293.372V383.6ZM293.372 401.975H301.622C304.672 401.975 306.197 400.575 306.197 397.775C306.197 395.175 304.622 393.875 301.472 393.875H293.372V401.975Z" fill="black"/>
<path d="M328.15 206.8V172.3H332.85L333.15 174.65C334.217 173.683 335.383 172.967 336.65 172.5C337.917 172.033 339.417 171.8 341.15 171.8C344.55 171.8 347.2 172.733 349.1 174.6C351 176.433 351.95 179.483 351.95 183.75C351.95 188.017 350.967 191.217 349 193.35C347.033 195.45 344.35 196.5 340.95 196.5C338.083 196.5 335.633 195.833 333.6 194.5V206.8H328.15ZM339.55 192.4C344.15 192.4 346.45 189.5 346.45 183.7C346.45 180.9 345.933 178.917 344.9 177.75C343.867 176.55 342.133 175.95 339.7 175.95C337.267 175.95 335.233 176.783 333.6 178.45V190.3C334.367 190.933 335.217 191.45 336.15 191.85C337.117 192.217 338.25 192.4 339.55 192.4ZM364.652 196.5C363.152 196.5 361.752 196.233 360.452 195.7C359.185 195.167 358.168 194.367 357.402 193.3C356.635 192.2 356.252 190.85 356.252 189.25C356.252 186.983 357.018 185.167 358.552 183.8C360.118 182.4 362.518 181.7 365.752 181.7H373.352V180.65C373.352 179.517 373.168 178.617 372.802 177.95C372.468 177.283 371.835 176.8 370.902 176.5C370.002 176.2 368.668 176.05 366.902 176.05C364.102 176.05 361.485 176.467 359.052 177.3V173.25C360.118 172.817 361.418 172.467 362.952 172.2C364.485 171.933 366.135 171.8 367.902 171.8C371.368 171.8 374.002 172.5 375.802 173.9C377.635 175.3 378.552 177.583 378.552 180.75V196H373.902L373.552 193.6C372.585 194.533 371.385 195.25 369.952 195.75C368.552 196.25 366.785 196.5 364.652 196.5ZM366.102 192.6C367.735 192.6 369.152 192.333 370.352 191.8C371.585 191.233 372.585 190.483 373.352 189.55V185.4H365.852C364.252 185.4 363.085 185.717 362.352 186.35C361.652 186.95 361.302 187.883 361.302 189.15C361.302 190.383 361.718 191.267 362.552 191.8C363.385 192.333 364.568 192.6 366.102 192.6ZM384.595 196V172.3H389.595L389.895 175.05C391.029 174.317 392.379 173.65 393.945 173.05C395.512 172.45 397.062 172.033 398.595 171.8V175.95C397.662 176.117 396.645 176.367 395.545 176.7C394.479 177 393.462 177.35 392.495 177.75C391.529 178.117 390.712 178.5 390.045 178.9V196H384.595ZM413.588 196.5C409.454 196.5 406.254 195.483 403.988 193.45C401.721 191.417 400.588 188.3 400.588 184.1C400.588 180.3 401.554 177.3 403.488 175.1C405.421 172.9 408.354 171.8 412.288 171.8C415.888 171.8 418.588 172.75 420.388 174.65C422.221 176.517 423.138 178.933 423.138 181.9V186.3H405.787C406.054 188.6 406.888 190.183 408.288 191.05C409.688 191.917 411.821 192.35 414.688 192.35C415.888 192.35 417.121 192.233 418.388 192C419.654 191.767 420.754 191.467 421.688 191.1V195.1C420.621 195.567 419.388 195.917 417.988 196.15C416.621 196.383 415.154 196.5 413.588 196.5ZM405.787 182.75H418.338V181.1C418.338 179.467 417.888 178.2 416.988 177.3C416.088 176.367 414.571 175.9 412.438 175.9C409.904 175.9 408.154 176.45 407.188 177.55C406.254 178.65 405.787 180.383 405.787 182.75ZM428.443 196V172.3H433.443L433.693 174.8C434.76 173.967 436.026 173.267 437.493 172.7C438.993 172.1 440.643 171.8 442.443 171.8C445.51 171.8 447.743 172.517 449.143 173.95C450.543 175.383 451.243 177.617 451.243 180.65V196H445.843V180.9C445.843 179.067 445.46 177.783 444.693 177.05C443.96 176.317 442.56 175.95 440.493 175.95C439.26 175.95 438.043 176.2 436.843 176.7C435.676 177.2 434.693 177.85 433.893 178.65V196H428.443ZM466.399 196.5C463.866 196.5 461.966 195.833 460.699 194.5C459.466 193.133 458.849 191.283 458.849 188.95V176.55H455.349V172.3H458.849V166.85L464.249 165.2V172.3H470.549L470.199 176.55H464.249V188.65C464.249 190.017 464.566 190.983 465.199 191.55C465.833 192.083 466.866 192.35 468.299 192.35C469.199 192.35 470.149 192.183 471.149 191.85V195.7C469.849 196.233 468.266 196.5 466.399 196.5ZM482.718 196.5C481.218 196.5 479.818 196.233 478.518 195.7C477.251 195.167 476.235 194.367 475.468 193.3C474.701 192.2 474.318 190.85 474.318 189.25C474.318 186.983 475.085 185.167 476.618 183.8C478.185 182.4 480.585 181.7 483.818 181.7H491.418V180.65C491.418 179.517 491.235 178.617 490.868 177.95C490.535 177.283 489.901 176.8 488.968 176.5C488.068 176.2 486.735 176.05 484.968 176.05C482.168 176.05 479.551 176.467 477.118 177.3V173.25C478.185 172.817 479.485 172.467 481.018 172.2C482.551 171.933 484.201 171.8 485.968 171.8C489.435 171.8 492.068 172.5 493.868 173.9C495.701 175.3 496.618 177.583 496.618 180.75V196H491.968L491.618 193.6C490.651 194.533 489.451 195.25 488.018 195.75C486.618 196.25 484.851 196.5 482.718 196.5ZM484.168 192.6C485.801 192.6 487.218 192.333 488.418 191.8C489.651 191.233 490.651 190.483 491.418 189.55V185.4H483.918C482.318 185.4 481.151 185.717 480.418 186.35C479.718 186.95 479.368 187.883 479.368 189.15C479.368 190.383 479.785 191.267 480.618 191.8C481.451 192.333 482.635 192.6 484.168 192.6ZM508.562 196.5C506.628 196.5 505.162 196.033 504.162 195.1C503.162 194.133 502.662 192.55 502.662 190.35V162.3H508.112V189.85C508.112 190.783 508.278 191.417 508.612 191.75C508.945 192.083 509.445 192.25 510.112 192.25C510.912 192.25 511.678 192.15 512.412 191.95V195.9C511.778 196.133 511.162 196.283 510.562 196.35C509.995 196.45 509.328 196.5 508.562 196.5ZM537.799 204.8C536.032 204.8 534.265 204.683 532.499 204.45C530.732 204.25 529.232 203.933 527.999 203.5V199.3C529.332 199.733 530.865 200.067 532.599 200.3C534.332 200.533 535.982 200.65 537.549 200.65C539.949 200.65 541.699 200.517 542.799 200.25C543.899 199.983 544.449 199.383 544.449 198.45C544.449 197.75 544.182 197.25 543.649 196.95C543.115 196.683 542.099 196.55 540.599 196.55H534.199C529.899 196.55 527.749 195.033 527.749 192C527.749 191.033 528.032 190.133 528.599 189.3C529.165 188.467 530.065 187.833 531.299 187.4C529.932 186.733 528.915 185.817 528.249 184.65C527.615 183.483 527.299 182.083 527.299 180.45C527.299 177.417 528.199 175.217 529.999 173.85C531.832 172.483 534.565 171.8 538.199 171.8C538.965 171.8 539.765 171.867 540.599 172C541.432 172.1 542.082 172.2 542.549 172.3H551.249L551.099 175.85H547.099C547.732 176.383 548.199 177.05 548.499 177.85C548.799 178.65 548.949 179.517 548.949 180.45C548.949 182.983 548.182 184.983 546.649 186.45C545.115 187.883 542.799 188.6 539.699 188.6C539.165 188.6 538.665 188.583 538.199 188.55C537.765 188.483 537.282 188.417 536.749 188.35C535.749 188.45 534.849 188.717 534.049 189.15C533.249 189.583 532.849 190.167 532.849 190.9C532.849 191.4 533.049 191.767 533.449 192C533.849 192.2 534.515 192.3 535.449 192.3H542.099C544.465 192.3 546.282 192.817 547.549 193.85C548.849 194.85 549.499 196.317 549.499 198.25C549.499 200.583 548.482 202.25 546.449 203.25C544.449 204.283 541.565 204.8 537.799 204.8ZM538.199 185.15C540.365 185.15 541.865 184.783 542.699 184.05C543.565 183.317 543.999 182.067 543.999 180.3C543.999 178.533 543.565 177.25 542.699 176.45C541.865 175.65 540.365 175.25 538.199 175.25C536.165 175.25 534.682 175.633 533.749 176.4C532.815 177.167 532.349 178.467 532.349 180.3C532.349 182 532.782 183.233 533.649 184C534.549 184.767 536.065 185.15 538.199 185.15ZM567.396 196.5C563.263 196.5 560.063 195.483 557.796 193.45C555.529 191.417 554.396 188.3 554.396 184.1C554.396 180.3 555.363 177.3 557.296 175.1C559.229 172.9 562.163 171.8 566.096 171.8C569.696 171.8 572.396 172.75 574.196 174.65C576.029 176.517 576.946 178.933 576.946 181.9V186.3H559.596C559.863 188.6 560.696 190.183 562.096 191.05C563.496 191.917 565.629 192.35 568.496 192.35C569.696 192.35 570.929 192.233 572.196 192C573.463 191.767 574.563 191.467 575.496 191.1V195.1C574.429 195.567 573.196 195.917 571.796 196.15C570.429 196.383 568.963 196.5 567.396 196.5ZM559.596 182.75H572.146V181.1C572.146 179.467 571.696 178.2 570.796 177.3C569.896 176.367 568.379 175.9 566.246 175.9C563.713 175.9 561.963 176.45 560.996 177.55C560.063 178.65 559.596 180.383 559.596 182.75ZM582.252 196V172.3H587.252L587.502 174.8C588.568 173.967 589.835 173.267 591.302 172.7C592.802 172.1 594.452 171.8 596.252 171.8C599.318 171.8 601.552 172.517 602.952 173.95C604.352 175.383 605.052 177.617 605.052 180.65V196H599.652V180.9C599.652 179.067 599.268 177.783 598.502 177.05C597.768 176.317 596.368 175.95 594.302 175.95C593.068 175.95 591.852 176.2 590.652 176.7C589.485 177.2 588.502 177.85 587.702 178.65V196H582.252ZM622.67 196.5C618.536 196.5 615.336 195.483 613.07 193.45C610.803 191.417 609.67 188.3 609.67 184.1C609.67 180.3 610.636 177.3 612.57 175.1C614.503 172.9 617.436 171.8 621.37 171.8C624.97 171.8 627.67 172.75 629.47 174.65C631.303 176.517 632.22 178.933 632.22 181.9V186.3H614.87C615.136 188.6 615.97 190.183 617.37 191.05C618.77 191.917 620.903 192.35 623.77 192.35C624.97 192.35 626.203 192.233 627.47 192C628.736 191.767 629.836 191.467 630.77 191.1V195.1C629.703 195.567 628.47 195.917 627.07 196.15C625.703 196.383 624.236 196.5 622.67 196.5ZM614.87 182.75H627.42V181.1C627.42 179.467 626.97 178.2 626.07 177.3C625.17 176.367 623.653 175.9 621.52 175.9C618.986 175.9 617.236 176.45 616.27 177.55C615.336 178.65 614.87 180.383 614.87 182.75ZM637.525 196V172.3H642.525L642.825 175.05C643.958 174.317 645.308 173.65 646.875 173.05C648.442 172.45 649.992 172.033 651.525 171.8V175.95C650.592 176.117 649.575 176.367 648.475 176.7C647.408 177 646.392 177.35 645.425 177.75C644.458 178.117 643.642 178.5 642.975 178.9V196H637.525ZM661.38 196.5C659.88 196.5 658.48 196.233 657.18 195.7C655.913 195.167 654.897 194.367 654.13 193.3C653.363 192.2 652.98 190.85 652.98 189.25C652.98 186.983 653.747 185.167 655.28 183.8C656.847 182.4 659.247 181.7 662.48 181.7H670.08V180.65C670.08 179.517 669.897 178.617 669.53 177.95C669.197 177.283 668.563 176.8 667.63 176.5C666.73 176.2 665.397 176.05 663.63 176.05C660.83 176.05 658.213 176.467 655.78 177.3V173.25C656.847 172.817 658.147 172.467 659.68 172.2C661.213 171.933 662.863 171.8 664.63 171.8C668.097 171.8 670.73 172.5 672.53 173.9C674.363 175.3 675.28 177.583 675.28 180.75V196H670.63L670.28 193.6C669.313 194.533 668.113 195.25 666.68 195.75C665.28 196.25 663.513 196.5 661.38 196.5ZM662.83 192.6C664.463 192.6 665.88 192.333 667.08 191.8C668.313 191.233 669.313 190.483 670.08 189.55V185.4H662.58C660.98 185.4 659.813 185.717 659.08 186.35C658.38 186.95 658.03 187.883 658.03 189.15C658.03 190.383 658.447 191.267 659.28 191.8C660.113 192.333 661.297 192.6 662.83 192.6ZM690.374 196.5C687.84 196.5 685.94 195.833 684.674 194.5C683.44 193.133 682.824 191.283 682.824 188.95V176.55H679.324V172.3H682.824V166.85L688.224 165.2V172.3H694.524L694.174 176.55H688.224V188.65C688.224 190.017 688.54 190.983 689.174 191.55C689.807 192.083 690.84 192.35 692.274 192.35C693.174 192.35 694.124 192.183 695.124 191.85V195.7C693.824 196.233 692.24 196.5 690.374 196.5ZM701.293 167.35V162.85H707.243V167.35H701.293ZM701.743 196V176.45H698.143L698.643 172.3H707.193V196H701.743ZM724.9 196.5C720.634 196.5 717.5 195.433 715.5 193.3C713.534 191.167 712.55 188.117 712.55 184.15C712.55 180.183 713.55 177.133 715.55 175C717.55 172.867 720.667 171.8 724.9 171.8C729.167 171.8 732.3 172.867 734.3 175C736.3 177.133 737.3 180.183 737.3 184.15C737.3 188.117 736.3 191.167 734.3 193.3C732.334 195.433 729.2 196.5 724.9 196.5ZM724.9 191.9C727.4 191.9 729.167 191.3 730.2 190.1C731.267 188.867 731.8 186.883 731.8 184.15C731.8 181.417 731.267 179.45 730.2 178.25C729.167 177.05 727.4 176.45 724.9 176.45C722.434 176.45 720.667 177.05 719.6 178.25C718.567 179.45 718.05 181.417 718.05 184.15C718.05 186.883 718.567 188.867 719.6 190.1C720.667 191.3 722.434 191.9 724.9 191.9ZM742.603 196V172.3H747.603L747.853 174.8C748.92 173.967 750.186 173.267 751.653 172.7C753.153 172.1 754.803 171.8 756.603 171.8C759.67 171.8 761.903 172.517 763.303 173.95C764.703 175.383 765.403 177.617 765.403 180.65V196H760.003V180.9C760.003 179.067 759.62 177.783 758.853 177.05C758.12 176.317 756.72 175.95 754.653 175.95C753.42 175.95 752.203 176.2 751.003 176.7C749.836 177.2 748.853 177.85 748.053 178.65V196H742.603Z" fill="black"/>
<path d="M57.15 867V834.8H79.05V839.05H62.6V848.8H77.2V853H62.6V867H57.15ZM87.5707 867V839.6L82.3707 840.5V835.95L92.9707 834.3V867H87.5707ZM120.461 875.8C118.694 875.8 116.928 875.683 115.161 875.45C113.394 875.25 111.894 874.933 110.661 874.5V870.3C111.994 870.733 113.528 871.067 115.261 871.3C116.994 871.533 118.644 871.65 120.211 871.65C122.611 871.65 124.361 871.517 125.461 871.25C126.561 870.983 127.111 870.383 127.111 869.45C127.111 868.75 126.844 868.25 126.311 867.95C125.778 867.683 124.761 867.55 123.261 867.55H116.861C112.561 867.55 110.411 866.033 110.411 863C110.411 862.033 110.694 861.133 111.261 860.3C111.828 859.467 112.728 858.833 113.961 858.4C112.594 857.733 111.578 856.817 110.911 855.65C110.278 854.483 109.961 853.083 109.961 851.45C109.961 848.417 110.861 846.217 112.661 844.85C114.494 843.483 117.228 842.8 120.861 842.8C121.628 842.8 122.428 842.867 123.261 843C124.094 843.1 124.744 843.2 125.211 843.3H133.911L133.761 846.85H129.761C130.394 847.383 130.861 848.05 131.161 848.85C131.461 849.65 131.611 850.517 131.611 851.45C131.611 853.983 130.844 855.983 129.311 857.45C127.778 858.883 125.461 859.6 122.361 859.6C121.828 859.6 121.328 859.583 120.861 859.55C120.428 859.483 119.944 859.417 119.411 859.35C118.411 859.45 117.511 859.717 116.711 860.15C115.911 860.583 115.511 861.167 115.511 861.9C115.511 862.4 115.711 862.767 116.111 863C116.511 863.2 117.178 863.3 118.111 863.3H124.761C127.128 863.3 128.944 863.817 130.211 864.85C131.511 865.85 132.161 867.317 132.161 869.25C132.161 871.583 131.144 873.25 129.111 874.25C127.111 875.283 124.228 875.8 120.461 875.8ZM120.861 856.15C123.028 856.15 124.528 855.783 125.361 855.05C126.228 854.317 126.661 853.067 126.661 851.3C126.661 849.533 126.228 848.25 125.361 847.45C124.528 846.65 123.028 846.25 120.861 846.25C118.828 846.25 117.344 846.633 116.411 847.4C115.478 848.167 115.011 849.467 115.011 851.3C115.011 853 115.444 854.233 116.311 855C117.211 855.767 118.728 856.15 120.861 856.15ZM150.058 867.5C145.925 867.5 142.725 866.483 140.458 864.45C138.192 862.417 137.058 859.3 137.058 855.1C137.058 851.3 138.025 848.3 139.958 846.1C141.892 843.9 144.825 842.8 148.758 842.8C152.358 842.8 155.058 843.75 156.858 845.65C158.692 847.517 159.608 849.933 159.608 852.9V857.3H142.258C142.525 859.6 143.358 861.183 144.758 862.05C146.158 862.917 148.292 863.35 151.158 863.35C152.358 863.35 153.592 863.233 154.858 863C156.125 862.767 157.225 862.467 158.158 862.1V866.1C157.092 866.567 155.858 866.917 154.458 867.15C153.092 867.383 151.625 867.5 150.058 867.5ZM142.258 853.75H154.808V852.1C154.808 850.467 154.358 849.2 153.458 848.3C152.558 847.367 151.042 846.9 148.908 846.9C146.375 846.9 144.625 847.45 143.658 848.55C142.725 849.65 142.258 851.383 142.258 853.75ZM164.914 867V843.3H169.914L170.164 845.8C171.23 844.967 172.497 844.267 173.964 843.7C175.464 843.1 177.114 842.8 178.914 842.8C181.98 842.8 184.214 843.517 185.614 844.95C187.014 846.383 187.714 848.617 187.714 851.65V867H182.314V851.9C182.314 850.067 181.93 848.783 181.164 848.05C180.43 847.317 179.03 846.95 176.964 846.95C175.73 846.95 174.514 847.2 173.314 847.7C172.147 848.2 171.164 848.85 170.364 849.65V867H164.914ZM205.332 867.5C201.198 867.5 197.998 866.483 195.732 864.45C193.465 862.417 192.332 859.3 192.332 855.1C192.332 851.3 193.298 848.3 195.232 846.1C197.165 843.9 200.098 842.8 204.032 842.8C207.632 842.8 210.332 843.75 212.132 845.65C213.965 847.517 214.882 849.933 214.882 852.9V857.3H197.532C197.798 859.6 198.632 861.183 200.032 862.05C201.432 862.917 203.565 863.35 206.432 863.35C207.632 863.35 208.865 863.233 210.132 863C211.398 862.767 212.498 862.467 213.432 862.1V866.1C212.365 866.567 211.132 866.917 209.732 867.15C208.365 867.383 206.898 867.5 205.332 867.5ZM197.532 853.75H210.082V852.1C210.082 850.467 209.632 849.2 208.732 848.3C207.832 847.367 206.315 846.9 204.182 846.9C201.648 846.9 199.898 847.45 198.932 848.55C197.998 849.65 197.532 851.383 197.532 853.75ZM220.187 867V843.3H225.187L225.487 846.05C226.62 845.317 227.97 844.65 229.537 844.05C231.104 843.45 232.654 843.033 234.187 842.8V846.95C233.254 847.117 232.237 847.367 231.137 847.7C230.07 848 229.054 848.35 228.087 848.75C227.12 849.117 226.304 849.5 225.637 849.9V867H220.187ZM244.042 867.5C242.542 867.5 241.142 867.233 239.842 866.7C238.576 866.167 237.559 865.367 236.792 864.3C236.026 863.2 235.642 861.85 235.642 860.25C235.642 857.983 236.409 856.167 237.942 854.8C239.509 853.4 241.909 852.7 245.142 852.7H252.742V851.65C252.742 850.517 252.559 849.617 252.192 848.95C251.859 848.283 251.226 847.8 250.292 847.5C249.392 847.2 248.059 847.05 246.292 847.05C243.492 847.05 240.876 847.467 238.442 848.3V844.25C239.509 843.817 240.809 843.467 242.342 843.2C243.876 842.933 245.526 842.8 247.292 842.8C250.759 842.8 253.392 843.5 255.192 844.9C257.026 846.3 257.942 848.583 257.942 851.75V867H253.292L252.942 864.6C251.976 865.533 250.776 866.25 249.342 866.75C247.942 867.25 246.176 867.5 244.042 867.5ZM245.492 863.6C247.126 863.6 248.542 863.333 249.742 862.8C250.976 862.233 251.976 861.483 252.742 860.55V856.4H245.242C243.642 856.4 242.476 856.717 241.742 857.35C241.042 857.95 240.692 858.883 240.692 860.15C240.692 861.383 241.109 862.267 241.942 862.8C242.776 863.333 243.959 863.6 245.492 863.6ZM273.036 867.5C270.503 867.5 268.603 866.833 267.336 865.5C266.103 864.133 265.486 862.283 265.486 859.95V847.55H261.986V843.3H265.486V837.85L270.886 836.2V843.3H277.186L276.836 847.55H270.886V859.65C270.886 861.017 271.203 861.983 271.836 862.55C272.469 863.083 273.503 863.35 274.936 863.35C275.836 863.35 276.786 863.183 277.786 862.85V866.7C276.486 867.233 274.903 867.5 273.036 867.5ZM283.955 838.35V833.85H289.905V838.35H283.955ZM284.405 867V847.45H280.805L281.305 843.3H289.855V867H284.405ZM307.563 867.5C303.296 867.5 300.163 866.433 298.163 864.3C296.196 862.167 295.213 859.117 295.213 855.15C295.213 851.183 296.213 848.133 298.213 846C300.213 843.867 303.329 842.8 307.563 842.8C311.829 842.8 314.963 843.867 316.963 846C318.963 848.133 319.963 851.183 319.963 855.15C319.963 859.117 318.963 862.167 316.963 864.3C314.996 866.433 311.863 867.5 307.563 867.5ZM307.563 862.9C310.063 862.9 311.829 862.3 312.863 861.1C313.929 859.867 314.463 857.883 314.463 855.15C314.463 852.417 313.929 850.45 312.863 849.25C311.829 848.05 310.063 847.45 307.563 847.45C305.096 847.45 303.329 848.05 302.263 849.25C301.229 850.45 300.713 852.417 300.713 855.15C300.713 857.883 301.229 859.867 302.263 861.1C303.329 862.3 305.096 862.9 307.563 862.9ZM325.265 867V843.3H330.265L330.515 845.8C331.582 844.967 332.849 844.267 334.315 843.7C335.815 843.1 337.465 842.8 339.265 842.8C342.332 842.8 344.565 843.517 345.965 844.95C347.365 846.383 348.065 848.617 348.065 851.65V867H342.665V851.9C342.665 850.067 342.282 848.783 341.515 848.05C340.782 847.317 339.382 846.95 337.315 846.95C336.082 846.95 334.865 847.2 333.665 847.7C332.499 848.2 331.515 848.85 330.715 849.65V867H325.265Z" fill="black"/>
<path d="M631.15 984V951.8H653.05V956.05H636.6V965.8H651.2V970H636.6V984H631.15ZM656.371 984V981.3C657.237 979.267 658.437 977.433 659.971 975.8C661.537 974.167 663.204 972.583 664.971 971.05C666.304 969.883 667.404 968.9 668.271 968.1C669.171 967.267 669.871 966.517 670.371 965.85C670.871 965.183 671.221 964.5 671.421 963.8C671.621 963.067 671.721 962.217 671.721 961.25C671.721 959.517 671.221 958.2 670.221 957.3C669.221 956.4 667.554 955.95 665.221 955.95C663.954 955.95 662.654 956.083 661.321 956.35C660.021 956.617 658.771 956.983 657.571 957.45V952.65C658.737 952.25 660.121 951.933 661.721 951.7C663.321 951.433 664.837 951.3 666.271 951.3C669.871 951.3 672.587 952.183 674.421 953.95C676.254 955.717 677.171 958.133 677.171 961.2C677.171 962.733 676.904 964.1 676.371 965.3C675.837 966.467 675.104 967.583 674.171 968.65C673.237 969.683 672.154 970.75 670.921 971.85C669.387 973.183 667.937 974.483 666.571 975.75C665.237 976.983 664.154 978.333 663.321 979.8H677.521V984H656.371ZM703.934 992.8C702.167 992.8 700.4 992.683 698.634 992.45C696.867 992.25 695.367 991.933 694.134 991.5V987.3C695.467 987.733 697 988.067 698.734 988.3C700.467 988.533 702.117 988.65 703.684 988.65C706.084 988.65 707.834 988.517 708.934 988.25C710.034 987.983 710.584 987.383 710.584 986.45C710.584 985.75 710.317 985.25 709.784 984.95C709.25 984.683 708.234 984.55 706.734 984.55H700.334C696.034 984.55 693.884 983.033 693.884 980C693.884 979.033 694.167 978.133 694.734 977.3C695.3 976.467 696.2 975.833 697.434 975.4C696.067 974.733 695.05 973.817 694.384 972.65C693.75 971.483 693.434 970.083 693.434 968.45C693.434 965.417 694.334 963.217 696.134 961.85C697.967 960.483 700.7 959.8 704.334 959.8C705.1 959.8 705.9 959.867 706.734 960C707.567 960.1 708.217 960.2 708.684 960.3H717.384L717.234 963.85H713.234C713.867 964.383 714.334 965.05 714.634 965.85C714.934 966.65 715.084 967.517 715.084 968.45C715.084 970.983 714.317 972.983 712.784 974.45C711.25 975.883 708.934 976.6 705.834 976.6C705.3 976.6 704.8 976.583 704.334 976.55C703.9 976.483 703.417 976.417 702.884 976.35C701.884 976.45 700.984 976.717 700.184 977.15C699.384 977.583 698.984 978.167 698.984 978.9C698.984 979.4 699.184 979.767 699.584 980C699.984 980.2 700.65 980.3 701.584 980.3H708.234C710.6 980.3 712.417 980.817 713.684 981.85C714.984 982.85 715.634 984.317 715.634 986.25C715.634 988.583 714.617 990.25 712.584 991.25C710.584 992.283 707.7 992.8 703.934 992.8ZM704.334 973.15C706.5 973.15 708 972.783 708.834 972.05C709.7 971.317 710.134 970.067 710.134 968.3C710.134 966.533 709.7 965.25 708.834 964.45C708 963.65 706.5 963.25 704.334 963.25C702.3 963.25 700.817 963.633 699.884 964.4C698.95 965.167 698.484 966.467 698.484 968.3C698.484 970 698.917 971.233 699.784 972C700.684 972.767 702.2 973.15 704.334 973.15ZM733.531 984.5C729.398 984.5 726.198 983.483 723.931 981.45C721.664 979.417 720.531 976.3 720.531 972.1C720.531 968.3 721.498 965.3 723.431 963.1C725.364 960.9 728.298 959.8 732.231 959.8C735.831 959.8 738.531 960.75 740.331 962.65C742.164 964.517 743.081 966.933 743.081 969.9V974.3H725.731C725.998 976.6 726.831 978.183 728.231 979.05C729.631 979.917 731.764 980.35 734.631 980.35C735.831 980.35 737.064 980.233 738.331 980C739.598 979.767 740.698 979.467 741.631 979.1V983.1C740.564 983.567 739.331 983.917 737.931 984.15C736.564 984.383 735.098 984.5 733.531 984.5ZM725.731 970.75H738.281V969.1C738.281 967.467 737.831 966.2 736.931 965.3C736.031 964.367 734.514 963.9 732.381 963.9C729.848 963.9 728.098 964.45 727.131 965.55C726.198 966.65 725.731 968.383 725.731 970.75ZM748.386 984V960.3H753.386L753.636 962.8C754.703 961.967 755.97 961.267 757.436 960.7C758.936 960.1 760.586 959.8 762.386 959.8C765.453 959.8 767.686 960.517 769.086 961.95C770.486 963.383 771.186 965.617 771.186 968.65V984H765.786V968.9C765.786 967.067 765.403 965.783 764.636 965.05C763.903 964.317 762.503 963.95 760.436 963.95C759.203 963.95 757.986 964.2 756.786 964.7C755.62 965.2 754.636 965.85 753.836 966.65V984H748.386ZM788.804 984.5C784.671 984.5 781.471 983.483 779.204 981.45C776.938 979.417 775.804 976.3 775.804 972.1C775.804 968.3 776.771 965.3 778.704 963.1C780.638 960.9 783.571 959.8 787.504 959.8C791.104 959.8 793.804 960.75 795.604 962.65C797.438 964.517 798.354 966.933 798.354 969.9V974.3H781.004C781.271 976.6 782.104 978.183 783.504 979.05C784.904 979.917 787.038 980.35 789.904 980.35C791.104 980.35 792.338 980.233 793.604 980C794.871 979.767 795.971 979.467 796.904 979.1V983.1C795.838 983.567 794.604 983.917 793.204 984.15C791.838 984.383 790.371 984.5 788.804 984.5ZM781.004 970.75H793.554V969.1C793.554 967.467 793.104 966.2 792.204 965.3C791.304 964.367 789.788 963.9 787.654 963.9C785.121 963.9 783.371 964.45 782.404 965.55C781.471 966.65 781.004 968.383 781.004 970.75ZM803.66 984V960.3H808.66L808.96 963.05C810.093 962.317 811.443 961.65 813.01 961.05C814.576 960.45 816.126 960.033 817.66 959.8V963.95C816.726 964.117 815.71 964.367 814.61 964.7C813.543 965 812.526 965.35 811.56 965.75C810.593 966.117 809.776 966.5 809.11 966.9V984H803.66ZM827.515 984.5C826.015 984.5 824.615 984.233 823.315 983.7C822.048 983.167 821.032 982.367 820.265 981.3C819.498 980.2 819.115 978.85 819.115 977.25C819.115 974.983 819.882 973.167 821.415 971.8C822.982 970.4 825.382 969.7 828.615 969.7H836.215V968.65C836.215 967.517 836.032 966.617 835.665 965.95C835.332 965.283 834.698 964.8 833.765 964.5C832.865 964.2 831.532 964.05 829.765 964.05C826.965 964.05 824.348 964.467 821.915 965.3V961.25C822.982 960.817 824.282 960.467 825.815 960.2C827.348 959.933 828.998 959.8 830.765 959.8C834.232 959.8 836.865 960.5 838.665 961.9C840.498 963.3 841.415 965.583 841.415 968.75V984H836.765L836.415 981.6C835.448 982.533 834.248 983.25 832.815 983.75C831.415 984.25 829.648 984.5 827.515 984.5ZM828.965 980.6C830.598 980.6 832.015 980.333 833.215 979.8C834.448 979.233 835.448 978.483 836.215 977.55V973.4H828.715C827.115 973.4 825.948 973.717 825.215 974.35C824.515 974.95 824.165 975.883 824.165 977.15C824.165 978.383 824.582 979.267 825.415 979.8C826.248 980.333 827.432 980.6 828.965 980.6ZM856.509 984.5C853.975 984.5 852.075 983.833 850.809 982.5C849.575 981.133 848.959 979.283 848.959 976.95V964.55H845.459V960.3H848.959V954.85L854.359 953.2V960.3H860.659L860.309 964.55H854.359V976.65C854.359 978.017 854.675 978.983 855.309 979.55C855.942 980.083 856.975 980.35 858.409 980.35C859.309 980.35 860.259 980.183 861.259 979.85V983.7C859.959 984.233 858.375 984.5 856.509 984.5ZM867.427 955.35V950.85H873.377V955.35H867.427ZM867.877 984V964.45H864.277L864.777 960.3H873.327V984H867.877ZM891.035 984.5C886.768 984.5 883.635 983.433 881.635 981.3C879.668 979.167 878.685 976.117 878.685 972.15C878.685 968.183 879.685 965.133 881.685 963C883.685 960.867 886.802 959.8 891.035 959.8C895.302 959.8 898.435 960.867 900.435 963C902.435 965.133 903.435 968.183 903.435 972.15C903.435 976.117 902.435 979.167 900.435 981.3C898.468 983.433 895.335 984.5 891.035 984.5ZM891.035 979.9C893.535 979.9 895.302 979.3 896.335 978.1C897.402 976.867 897.935 974.883 897.935 972.15C897.935 969.417 897.402 967.45 896.335 966.25C895.302 965.05 893.535 964.45 891.035 964.45C888.568 964.45 886.802 965.05 885.735 966.25C884.702 967.45 884.185 969.417 884.185 972.15C884.185 974.883 884.702 976.867 885.735 978.1C886.802 979.3 888.568 979.9 891.035 979.9ZM908.738 984V960.3H913.738L913.988 962.8C915.055 961.967 916.321 961.267 917.788 960.7C919.288 960.1 920.938 959.8 922.738 959.8C925.805 959.8 928.038 960.517 929.438 961.95C930.838 963.383 931.538 965.617 931.538 968.65V984H926.138V968.9C926.138 967.067 925.755 965.783 924.988 965.05C924.255 964.317 922.855 963.95 920.788 963.95C919.555 963.95 918.338 964.2 917.138 964.7C915.971 965.2 914.988 965.85 914.188 966.65V984H908.738Z" fill="black"/>
<rect x="46.5" y="154.5" width="25" height="194" fill="#ED0B0B" stroke="black" stroke-width="3"/>
<rect x="86.5" y="154.5" width="25" height="194" fill="#ED0B0B" stroke="black" stroke-width="3"/>
<rect x="71.5" y="545.5" width="25" height="194" fill="#ED0B0B" stroke="black" stroke-width="3"/>
<rect x="111.5" y="545.5" width="25" height="194" fill="#0B2FED" stroke="black" stroke-width="3"/>
<rect x="465.5" y="733.5" width="25" height="194" fill="#ED0B0B" stroke="black" stroke-width="3"/>
<rect x="505.5" y="733.5" width="25" height="194" fill="#0B2FED" stroke="black" stroke-width="3"/>
<rect x="640.5" y="733.5" width="25" height="194" fill="#ED0B0B" stroke="black" stroke-width="3"/>
<rect x="680.5" y="733.5" width="25" height="194" fill="#0B2FED" stroke="black" stroke-width="3"/>
<rect x="798.5" y="733.5" width="25" height="194" fill="#ED0B0B" stroke="black" stroke-width="3"/>
<rect x="838.5" y="733.5" width="25" height="194" fill="#0B2FED" stroke="black" stroke-width="3"/>
<rect x="970.5" y="733.5" width="25" height="194" fill="#ED0B0B" stroke="black" stroke-width="3"/>
<rect x="1010.5" y="733.5" width="25" height="194" fill="#0B2FED" stroke="black" stroke-width="3"/>
<rect x="277.5" y="545.5" width="25" height="194" fill="#0B2FED" stroke="black" stroke-width="3"/>
<rect x="317.5" y="545.5" width="25" height="194" fill="#ED0B0B" stroke="black" stroke-width="3"/>
<rect x="236.5" y="154.5" width="25" height="194" fill="#0B2FED" stroke="black" stroke-width="3"/>
<rect x="276.5" y="154.5" width="25" height="194" fill="#0B2FED" stroke="black" stroke-width="3"/>
<path d="M176.5 354.979L176.5 470.98L310.5 470.979L104.5 470.979" stroke="black" stroke-width="5"/>
<path d="M309 529L322.985 503.746L294.122 504.262L309 529ZM305.5 473.045L306.099 506.548L311.098 506.459L310.5 472.955L305.5 473.045Z" fill="black"/>
<path d="M108 529L121.985 503.746L93.1222 504.262L108 529ZM104.5 473.045L105.099 506.548L110.098 506.459L109.5 472.955L104.5 473.045Z" fill="black"/>
<path d="M673 732L686.985 706.746L658.122 707.262L673 732ZM669.5 676.045L670.099 709.548L675.098 709.459L674.5 675.955L669.5 676.045Z" fill="black"/>
<path d="M831 732L844.985 706.746L816.122 707.262L831 732ZM827.5 676.045L828.099 709.548L833.098 709.459L832.5 675.955L827.5 676.045Z" fill="black"/>
<path d="M1003.5 732.004L1017.93 707.004H989.066L1003.5 732.004ZM1001 673.996V709.504H1006V673.996H1001Z" fill="black"/>
<path d="M498 732L511.985 706.746L483.122 707.262L498 732ZM494.5 676.045L495.099 709.548L500.098 709.459L499.5 675.955L494.5 676.045Z" fill="black"/>
<path d="M202 680L1006 676.015" stroke="black" stroke-width="5"/>
<line x1="204.532" y1="680" x2="204.532" y2="663" stroke="black" stroke-width="5"/>
<rect x="467" y="735" width="22" height="62" fill="#0B2FED"/>
<rect x="642" y="800" width="22" height="82" fill="#0B2FED"/>
<rect x="972" y="805" width="22" height="94" fill="#0B2FED"/>
<rect x="800" y="782" width="22" height="36" fill="#0B2FED"/>
<rect x="467" y="812" width="22" height="14" fill="#0B2FED"/>
<rect x="507" y="752" width="22" height="51" fill="#ED0B0B"/>
<rect x="1012" y="838" width="22" height="12" fill="#ED0B0B"/>
<rect x="682" y="756" width="22" height="106" fill="#ED0B0B"/>
<rect x="840" y="753" width="22" height="18" fill="#ED0B0B"/>
<rect x="840" y="901" width="22" height="7" fill="#ED0B0B"/>
<rect x="840" y="805" width="22" height="64" fill="#ED0B0B"/>
<rect x="507" y="855" width="22" height="18" fill="#ED0B0B"/>
<rect x="1012" y="869" width="22" height="39" fill="#ED0B0B"/>
<rect x="1012" y="746" width="22" height="72" fill="#ED0B0B"/>
<rect x="642" y="831" width="22" height="18" fill="#ED0B0B"/>
<rect x="682" y="891" width="22" height="8" fill="#ED0B0B"/>
<rect x="467" y="887" width="22" height="26" fill="#0B2FED"/>
<rect x="642" y="740" width="22" height="26" fill="#0B2FED"/>
<rect x="972" y="745" width="22" height="11" fill="#0B2FED"/>
<rect x="800" y="849" width="22" height="20" fill="#0B2FED"/>
<rect x="800" y="908" width="22" height="13" fill="#0B2FED"/>
<path d="M378 865H540" stroke="black" stroke-width="4" stroke-dasharray="8 8"/>
<path d="M380 1008V863" stroke="black" stroke-width="4" stroke-dasharray="8 8"/>
<path d="M415 1008V897" stroke="black" stroke-width="4" stroke-dasharray="8 8"/>
<path d="M538 1008.01V917" stroke="black" stroke-width="4" stroke-dasharray="8 8"/>
<path d="M413.5 899H540" stroke="black" stroke-width="4" stroke-dasharray="8 8"/>
<line x1="440" y1="919" x2="540" y2="919" stroke="black" stroke-width="4" stroke-dasharray="8 8"/>
</svg>
